<svg width="24" height="24" viewBox="0 0 24 24" fill="none" xmlns="http://www.w3.org/2000/svg">
<path fill-rule="evenodd" clip-rule="evenodd" d="M11.6667 0C5.22667 0 0 5.22667 0 11.6667C0 18.1067 5.22667 23.3333 11.6667 23.3333C18.1067 23.3333 23.3333 18.1067 23.3333 11.6667C23.3333 5.22667 18.1067 0 11.6667 0ZM11.6667 21C6.52167 21 2.33333 16.8117 2.33333 11.6667C2.33333 6.52167 6.52167 2.33333 11.6667 2.33333C16.8117 2.33333 21 6.52167 21 11.6667C21 16.8117 16.8117 21 11.6667 21ZM9.33333 14.1983L17.0217 6.51001L18.6667 8.16668L9.33333 17.5L4.66667 12.8333L6.31167 11.1883L9.33333 14.1983Z" fill="#EAEAEA"/>
</svg>
